<?xml version="1.0" encoding="utf-8"?>
<svg version="1.1" xmlns:xlink="http://www.w3.org/1999/xlink" width="12px" height="12px" viewBox="275 237.5  12 12" xmlns="http://www.w3.org/2000/svg">
  <path d="M 281 237.5  C 284.36 237.5  287 240.14  287 243.5  C 287 246.86  284.36 249.5  281 249.5  C 277.64 249.5  275 246.86  275 243.5  C 275 240.14  277.64 237.5  281 237.5  Z " fill-rule="nonzero" fill="#ffffff" stroke="none" />
  <path d="M 281 238  C 284.08 238  286.5 240.42  286.5 243.5  C 286.5 246.58  284.08 249  281 249  C 277.92 249  275.5 246.58  275.5 243.5  C 275.5 240.42  277.92 238  281 238  Z " stroke-width="1" stroke="#797979" fill="none" />
  <path d="M 281 246.5  C 279.32 246.5  278 245.18  278 243.5  C 278 241.82  279.32 240.5  281 240.5  C 282.68 240.5  284 241.82  284 243.5  C 284 245.18  282.68 246.5  281 246.5  " fill-rule="nonzero" fill="#797979" stroke="none" />
</svg>