<?xml version="1.0" encoding="utf-8"?>
<svg version="1.1" xmlns:xlink="http://www.w3.org/1999/xlink" width="12px" height="12px" viewBox="135 239  12 12" xmlns="http://www.w3.org/2000/svg">
  <path d="M 141 239  C 144.36 239  147 241.64  147 245  C 147 248.36  144.36 251  141 251  C 137.64 251  135 248.36  135 245  C 135 241.64  137.64 239  141 239  Z " fill-rule="nonzero" fill="#ffffff" stroke="none" />
  <path d="M 141 239.5  C 144.08 239.5  146.5 241.92  146.5 245  C 146.5 248.08  144.08 250.5  141 250.5  C 137.92 250.5  135.5 248.08  135.5 245  C 135.5 241.92  137.92 239.5  141 239.5  Z " stroke-width="1" stroke="#797979" fill="none" />
  <path d="M 141 248  C 139.32 248  138 246.68  138 245  C 138 243.32  139.32 242  141 242  C 142.68 242  144 243.32  144 245  C 144 246.68  142.68 248  141 248  " fill-rule="nonzero" fill="#797979" stroke="none" />
</svg>