<?xml version="1.0" encoding="utf-8"?>
<svg version="1.1" xmlns:xlink="http://www.w3.org/1999/xlink" width="12px" height="12px" viewBox="215 290.5  12 12" xmlns="http://www.w3.org/2000/svg">
  <path d="M 221 290.5  C 224.36 290.5  227 293.14  227 296.5  C 227 299.86  224.36 302.5  221 302.5  C 217.64 302.5  215 299.86  215 296.5  C 215 293.14  217.64 290.5  221 290.5  Z " fill-rule="nonzero" fill="#ffffff" stroke="none" />
  <path d="M 221 291  C 224.08 291  226.5 293.42  226.5 296.5  C 226.5 299.58  224.08 302  221 302  C 217.92 302  215.5 299.58  215.5 296.5  C 215.5 293.42  217.92 291  221 291  Z " stroke-width="1" stroke="#797979" fill="none" />
  <path d="M 221 299.5  C 219.32 299.5  218 298.18  218 296.5  C 218 294.82  219.32 293.5  221 293.5  C 222.68 293.5  224 294.82  224 296.5  C 224 298.18  222.68 299.5  221 299.5  " fill-rule="nonzero" fill="#797979" stroke="none" />
</svg>