<?xml version="1.0" encoding="utf-8"?>
<svg version="1.1" xmlns:xlink="http://www.w3.org/1999/xlink" width="12px" height="12px" viewBox="558 290.5  12 12" xmlns="http://www.w3.org/2000/svg">
  <path d="M 564 290.5  C 567.36 290.5  570 293.14  570 296.5  C 570 299.86  567.36 302.5  564 302.5  C 560.64 302.5  558 299.86  558 296.5  C 558 293.14  560.64 290.5  564 290.5  Z " fill-rule="nonzero" fill="#ffffff" stroke="none" />
  <path d="M 564 291  C 567.08 291  569.5 293.42  569.5 296.5  C 569.5 299.58  567.08 302  564 302  C 560.92 302  558.5 299.58  558.5 296.5  C 558.5 293.42  560.92 291  564 291  Z " stroke-width="1" stroke="#797979" fill="none" />
  <path d="M 564 299.5  C 562.32 299.5  561 298.18  561 296.5  C 561 294.82  562.32 293.5  564 293.5  C 565.68 293.5  567 294.82  567 296.5  C 567 298.18  565.68 299.5  564 299.5  " fill-rule="nonzero" fill="#797979" stroke="none" />
</svg>