<?xml version="1.0" encoding="utf-8"?>
<svg version="1.1" xmlns:xlink="http://www.w3.org/1999/xlink" width="12px" height="12px" viewBox="135 290.5  12 12" xmlns="http://www.w3.org/2000/svg">
  <path d="M 141 290.5  C 144.36 290.5  147 293.14  147 296.5  C 147 299.86  144.36 302.5  141 302.5  C 137.64 302.5  135 299.86  135 296.5  C 135 293.14  137.64 290.5  141 290.5  Z " fill-rule="nonzero" fill="#ffffff" stroke="none" />
  <path d="M 141 291  C 144.08 291  146.5 293.42  146.5 296.5  C 146.5 299.58  144.08 302  141 302  C 137.92 302  135.5 299.58  135.5 296.5  C 135.5 293.42  137.92 291  141 291  Z " stroke-width="1" stroke="#797979" fill="none" />
  <path d="M 141 299.5  C 139.32 299.5  138 298.18  138 296.5  C 138 294.82  139.32 293.5  141 293.5  C 142.68 293.5  144 294.82  144 296.5  C 144 298.18  142.68 299.5  141 299.5  " fill-rule="nonzero" fill="#797979" stroke="none" />
</svg>