<?xml version="1.0" encoding="utf-8"?>
<svg version="1.1" xmlns:xlink="http://www.w3.org/1999/xlink" width="805px" height="170px" xmlns="http://www.w3.org/2000/svg">
  <g transform="matrix(1 0 0 1 -356 -95 )">
    <path d="M 356 95  L 1161 95  L 1161 265  L 356 265  L 356 95  " fill-rule="nonzero" fill="#cccccc" stroke="none" />
    <path d="M 368 107  L 1149 107  L 1149 253  L 368 253  L 368 107  " fill-rule="nonzero" fill="#ffffff" stroke="none" />
    <path d="M 787.35 146  C 780.21 146  774.6 140.39  774.6 133.25  C 774.6 126.11  780.21 120.5  787.35 120.5  C 794.49 120.5  800.1 126.11  800.1 133.25  C 800.1 140.39  794.49 146  787.35 146  " fill-rule="nonzero" fill="#cccccc" stroke="none" />
    <path d="M 373 249  L 373 173.65  L 566 139.4  L 836.2 231.64099378882  L 990.6 159.95  L 1145 231.64099378882  L 1145 249  L 373 249  " fill-rule="nonzero" fill="#169bd5" stroke="none" />
  </g>
</svg>