<?xml version="1.0" encoding="utf-8"?>
<svg version="1.1" xmlns:xlink="http://www.w3.org/1999/xlink" width="18px" height="12px" xmlns="http://www.w3.org/2000/svg">
  <g transform="matrix(1 0 0 1 -550 -275 )">
    <path d="M 17.8196392785571 1.23711340206186  C 17.939879759519 1.37457044673539  18 1.53264604810996  18 1.71134020618557  C 18 1.89003436426117  17.939879759519 2.04810996563574  17.8196392785571 2.18556701030928  L 9.41482965931864 11.7938144329897  C 9.29458917835671 11.9312714776632  9.1563126252505 12  9 12  C 8.8436873747495 12  8.70541082164329 11.9312714776632  8.58517034068136 11.7938144329897  L 0.180360721442886 2.18556701030928  C 0.0601202404809621 2.04810996563574  0 1.89003436426117  0 1.71134020618557  C 0 1.53264604810996  0.0601202404809621 1.37457044673539  0.180360721442886 1.23711340206186  L 1.08216432865731 0.20618556701031  C 1.20240480961924 0.0687285223367682  1.34068136272545 0  1.49699398797595 0  C 1.65330661322645 0  1.79158316633267 0.0687285223367682  1.91182364729459 0.20618556701031  L 9 8.30927835051546  L 16.0881763527054 0.20618556701031  C 16.2084168336673 0.0687285223367682  16.3466933867735 0  16.503006012024 0  C 16.6593186372746 0  16.7975951903808 0.0687285223367682  16.9178356713427 0.20618556701031  L 17.8196392785571 1.23711340206186  Z " fill-rule="nonzero" fill="#aaaaaa" stroke="none" transform="matrix(1 0 0 1 550 275 )" />
  </g>
</svg>