<?xml version="1.0" encoding="utf-8"?>
<svg version="1.1" xmlns:xlink="http://www.w3.org/1999/xlink" width="18px" height="18px" preserveAspectRatio="xMinYMid meet" viewBox="437 1708  18 16" xmlns="http://www.w3.org/2000/svg">
  <defs>
    <mask fill="white" id="clip24">
      <path d="M 409.5 1637  L 482.5 1637  L 482.5 1665  L 409.5 1665  Z M 409.5 1575  L 482.5 1575  L 482.5 1726  L 409.5 1726  Z " fill-rule="evenodd" />
    </mask>
  </defs>
  <path d="M 446.5 1637  L 446.5 1585  M 446.5 1665  L 446.5 1716  " stroke-width="1" stroke="#0099cc" fill="none" />
  <path d="M 441.853553390593 1590.05355339059  L 446.5 1585.40710678119  L 451.146446609407 1590.05355339059  L 451.853553390593 1589.34644660941  L 446.853553390593 1584.34644660941  L 446.5 1583.99289321881  L 446.146446609407 1584.34644660941  L 441.146446609407 1589.34644660941  L 441.853553390593 1590.05355339059  Z M 451.146446609407 1710.94644660941  L 446.5 1715.59289321881  L 441.853553390593 1710.94644660941  L 441.146446609407 1711.65355339059  L 446.146446609407 1716.65355339059  L 446.5 1717.00710678119  L 446.853553390593 1716.65355339059  L 451.853553390593 1711.65355339059  L 451.146446609407 1710.94644660941  Z " fill-rule="nonzero" fill="#0099cc" stroke="none" mask="url(#clip24)" />
</svg>