<?xml version="1.0" encoding="utf-8"?>
<svg version="1.1" xmlns:xlink="http://www.w3.org/1999/xlink" width="516px" height="531px" xmlns="http://www.w3.org/2000/svg">
  <g transform="matrix(1 0 0 1 -65 -110 )">
    <path d="M 65 110  L 581 110  L 581 641  L 65 641  L 65 110  " fill-rule="nonzero" fill="#cccccc" stroke="none" />
    <path d="M 101 146  L 545 146  L 545 605  L 101 605  L 101 146  " fill-rule="nonzero" fill="#ffffff" stroke="none" />
    <path d="M 372.02 267.05  C 350.348 267.05  333.32 250.022  333.32 228.35  C 333.32 206.678  350.348 189.65  372.02 189.65  C 393.692 189.65  410.72 206.678  410.72 228.35  C 410.72 250.022  393.692 267.05  372.02 267.05  " fill-rule="nonzero" fill="#cccccc" stroke="none" />
    <path d="M 114 592  L 114 353.85  L 218.5 245.6  L 364.8 332.2  L 448.4 310.55  L 532 332.2  L 532 592  L 114 592  " fill-rule="nonzero" fill="#169bd5" stroke="none" />
  </g>
</svg>