<?xml version="1.0" encoding="utf-8"?>
<svg version="1.1" xmlns:xlink="http://www.w3.org/1999/xlink" width="16px" height="16px" xmlns="http://www.w3.org/2000/svg">
  <g transform="matrix(1 0 0 1 -448 -14 )">
    <path d="M 11.7708333333333 10.8333333333333  C 11.9027777777778 10.7013888888889  11.96875 10.5416666666667  11.96875 10.3541666666667  C 11.96875 10.1736111111111  11.9027777777778 10.0173611111111  11.7708333333333 9.88541666666667  L 9.88541666666667 8  L 11.7708333333333 6.11458333333333  C 11.9027777777778 5.98263888888889  11.96875 5.82638888888889  11.96875 5.64583333333333  C 11.96875 5.45833333333333  11.9027777777778 5.29861111111111  11.7708333333333 5.16666666666667  L 10.8333333333333 4.22916666666667  C 10.7013888888889 4.09722222222222  10.5416666666667 4.03125  10.3541666666667 4.03125  C 10.1736111111111 4.03125  10.0173611111111 4.09722222222222  9.88541666666667 4.22916666666667  L 8 6.11458333333333  L 6.11458333333333 4.22916666666667  C 5.98263888888889 4.09722222222222  5.82638888888889 4.03125  5.64583333333333 4.03125  C 5.45833333333333 4.03125  5.29861111111111 4.09722222222222  5.16666666666667 4.22916666666667  L 4.22916666666667 5.16666666666667  C 4.09722222222222 5.29861111111111  4.03125 5.45833333333333  4.03125 5.64583333333333  C 4.03125 5.82638888888889  4.09722222222222 5.98263888888889  4.22916666666667 6.11458333333333  L 6.11458333333333 8  L 4.22916666666667 9.88541666666667  C 4.09722222222222 10.0173611111111  4.03125 10.1736111111111  4.03125 10.3541666666667  C 4.03125 10.5416666666667  4.09722222222222 10.7013888888889  4.22916666666667 10.8333333333333  L 5.16666666666667 11.7708333333333  C 5.29861111111111 11.9027777777778  5.45833333333333 11.96875  5.64583333333333 11.96875  C 5.82638888888889 11.96875  5.98263888888889 11.9027777777778  6.11458333333333 11.7708333333333  L 8 9.88541666666667  L 9.88541666666667 11.7708333333333  C 10.0173611111111 11.9027777777778  10.1736111111111 11.96875  10.3541666666667 11.96875  C 10.5416666666667 11.96875  10.7013888888889 11.9027777777778  10.8333333333333 11.7708333333333  L 11.7708333333333 10.8333333333333  Z M 14.9270833333333 3.984375  C 15.6423611111111 5.21006944444444  16 6.54861111111111  16 8  C 16 9.45138888888889  15.6423611111111 10.7899305555556  14.9270833333333 12.015625  C 14.2118055555556 13.2413194444444  13.2413194444444 14.2118055555556  12.015625 14.9270833333333  C 10.7899305555556 15.6423611111111  9.45138888888889 16  8 16  C 6.54861111111111 16  5.21006944444444 15.6423611111111  3.984375 14.9270833333333  C 2.75868055555556 14.2118055555556  1.78819444444444 13.2413194444444  1.07291666666667 12.015625  C 0.357638888888889 10.7899305555556  0 9.45138888888889  0 8  C 0 6.54861111111111  0.357638888888889 5.21006944444444  1.07291666666667 3.984375  C 1.78819444444444 2.75868055555556  2.75868055555556 1.78819444444444  3.984375 1.07291666666667  C 5.21006944444444 0.357638888888888  6.54861111111111 0  8 0  C 9.45138888888889 0  10.7899305555556 0.357638888888888  12.015625 1.07291666666667  C 13.2413194444444 1.78819444444444  14.2118055555556 2.75868055555556  14.9270833333333 3.984375  Z " fill-rule="nonzero" fill="#000000" stroke="none" transform="matrix(1 0 0 1 448 14 )" />
  </g>
</svg>