<?xml version="1.0" encoding="utf-8"?>
<svg version="1.1" xmlns:xlink="http://www.w3.org/1999/xlink" width="25px" height="25px" xmlns="http://www.w3.org/2000/svg">
  <g transform="matrix(1 0 0 1 -60 -367 )">
    <path d="M 17.4665178571429 21.9935825892857  C 19.0011160714286 21.1797805059524  20.2613467261905 20.0753348214286  21.2472098214286 18.6802455357143  C 21.0425967261905 17.2386532738095  20.6356956845238 16.0412016369048  20.0265066964286 15.087890625  C 19.4173177083333 14.1345796130952  18.5593377976191 13.5835193452381  17.4525669642857 13.4347098214286  C 16.8294270833333 14.1229538690476  16.0877046130952 14.6600632440476  15.2273995535714 15.0460379464286  C 14.3670944940476 15.4320126488095  13.4579613095238 15.625  12.5 15.625  C 11.5420386904762 15.625  10.6329055059524 15.4320126488095  9.77260044642857 15.0460379464286  C 8.91229538690476 14.6600632440476  8.17057291666667 14.1229538690476  7.54743303571429 13.4347098214286  C 6.44066220238095 13.5835193452381  5.58268229166667 14.1345796130952  4.97349330357143 15.087890625  C 4.36430431547619 16.0412016369048  3.95740327380952 17.2386532738095  3.75279017857143 18.6802455357143  C 4.73865327380952 20.0753348214286  5.99888392857143 21.1797805059524  7.53348214285714 21.9935825892857  C 9.06808035714286 22.807384672619  10.7235863095238 23.2142857142857  12.5 23.2142857142857  C 14.2764136904762 23.2142857142857  15.9319196428571 22.807384672619  17.4665178571429 21.9935825892857  Z M 16.2876674107143 12.7162388392857  C 17.333984375 11.669921875  17.8571428571429 10.4073660714286  17.8571428571429 8.92857142857143  C 17.8571428571429 7.44977678571428  17.333984375 6.18722098214286  16.2876674107143 5.14090401785714  C 15.2413504464286 4.09458705357143  13.9787946428571 3.57142857142857  12.5 3.57142857142857  C 11.0212053571429 3.57142857142857  9.75864955357143 4.09458705357143  8.71233258928571 5.14090401785714  C 7.666015625 6.18722098214286  7.14285714285714 7.44977678571428  7.14285714285714 8.92857142857143  C 7.14285714285714 10.4073660714286  7.666015625 11.669921875  8.71233258928571 12.7162388392857  C 9.75864955357143 13.7625558035714  11.0212053571429 14.2857142857143  12.5 14.2857142857143  C 13.9787946428571 14.2857142857143  15.2413504464286 13.7625558035714  16.2876674107143 12.7162388392857  Z M 24.0094866071429 7.64508928571428  C 24.6698288690476 9.18898809523809  25 10.8072916666667  25 12.5  C 25 14.1927083333333  24.6698288690476 15.8086867559524  24.0094866071429 17.3479352678571  C 23.3491443452381 18.8871837797619  22.4632626488095 20.2171688988095  21.3518415178571 21.337890625  C 20.2404203869048 22.4586123511905  18.9127604166667 23.3491443452381  17.3688616071429 24.0094866071429  C 15.824962797619 24.6698288690476  14.2020089285714 25  12.5 25  C 10.8072916666667 25  9.1889880952381 24.6698288690476  7.64508928571429 24.0094866071429  C 6.10119047619048 23.3491443452381  4.77120535714286 22.4609375  3.65513392857143 21.3448660714286  C 2.5390625 20.2287946428571  1.6508556547619 18.8988095238095  0.990513392857143 17.3549107142857  C 0.330171130952381 15.8110119047619  0 14.1927083333333  0 12.5  C 0 10.8072916666667  0.330171130952381 9.18898809523809  0.990513392857143 7.64508928571428  C 1.6508556547619 6.10119047619047  2.5390625 4.77120535714286  3.65513392857143 3.65513392857143  C 4.77120535714286 2.5390625  6.10119047619048 1.6508556547619  7.64508928571429 0.990513392857142  C 9.1889880952381 0.330171130952381  10.8072916666667 0  12.5 0  C 14.1927083333333 0  15.8110119047619 0.330171130952381  17.3549107142857 0.990513392857142  C 18.8988095238095 1.6508556547619  20.2287946428571 2.5390625  21.3448660714286 3.65513392857143  C 22.4609375 4.77120535714286  23.3491443452381 6.10119047619047  24.0094866071429 7.64508928571428  Z " fill-rule="nonzero" fill="#027db4" stroke="none" transform="matrix(1 0 0 1 60 367 )" />
  </g>
</svg>