<?xml version="1.0" encoding="utf-8"?>
<svg version="1.1" xmlns:xlink="http://www.w3.org/1999/xlink" width="97px" height="70px" xmlns="http://www.w3.org/2000/svg">
  <g transform="matrix(1 0 0 1 -293 -157 )">
    <path d="M 303.5 226.5  L 389.5 226.5  L 389.5 167.5  L 384.5 167.5  L 384.5 162.5  L 379.5 162.5  L 379.5 157.5  L 293.5 157.5  L 293.5 216.5  L 298.5 216.5  L 298.5 221.5  L 303.5 221.5  L 303.5 226.5  Z " fill-rule="nonzero" fill="#ffffff" stroke="none" />
    <path d="M 303.5 226.5  L 389.5 226.5  L 389.5 167.5  L 384.5 167.5  L 384.5 162.5  L 379.5 162.5  L 379.5 157.5  L 293.5 157.5  L 293.5 216.5  L 298.5 216.5  L 298.5 221.5  L 303.5 221.5  L 303.5 226.5  Z " stroke-width="1" stroke="#797979" fill="none" />
    <path d="M 384.5 168  L 384.5 221.5  L 304 221.5  M 379.5 163  L 379.5 216.5  L 299 216.5  " stroke-width="1" stroke="#797979" fill="none" />
  </g>
</svg>