<?xml version="1.0" encoding="utf-8"?>
<svg version="1.1" xmlns:xlink="http://www.w3.org/1999/xlink" width="30px" height="30px" xmlns="http://www.w3.org/2000/svg">
  <g transform="matrix(1 0 0 1 -24 -688 )">
    <path d="M 2.136 15  C 2.136 22.104  7.896 27.864  15 27.864  C 22.104 27.864  27.864 22.104  27.864 15  C 27.864 7.896  22.104 2.136  15 2.136  C 7.896 2.136  2.136 7.896  2.136 15  Z M 29.9692631578947 15  C 29.9692631578947 23.2661052631579  23.2694736842105 29.9692631578947  15 29.9692631578947  C 6.73052631578948 29.9692631578947  0.030736842105263 23.2661052631579  0.030736842105263 15  C 0.030736842105263 6.7338947368421  6.73052631578948 0.030736842105263  15 0.030736842105263  C 23.2694736842105 0.030736842105263  29.9692631578947 6.7338947368421  29.9692631578947 15  Z " fill-rule="nonzero" fill="#323233" stroke="none" transform="matrix(1 0 0 1 24 688 )" />
  </g>
</svg>