<?xml version="1.0" encoding="utf-8"?>
<svg version="1.1" xmlns:xlink="http://www.w3.org/1999/xlink" width="40px" height="11px" xmlns="http://www.w3.org/2000/svg">
  <g transform="matrix(1 0 0 1 -443 -43 )">
    <path d="M 10.1136363636364 0.802083333333333  C 10.6439393939394 1.33680555555555  10.9090909090909 1.98611111111111  10.9090909090909 2.75  L 10.9090909090909 8.25  C 10.9090909090909 9.01388888888889  10.6439393939394 9.66319444444444  10.1136363636364 10.1979166666667  C 9.58333333333334 10.7326388888889  8.93939393939394 11  8.18181818181818 11  L 2.72727272727273 11  C 1.96969696969697 11  1.32575757575758 10.7326388888889  0.795454545454545 10.1979166666667  C 0.265151515151515 9.66319444444444  0 9.01388888888889  0 8.25  L 0 2.75  C 0 1.98611111111111  0.265151515151515 1.33680555555555  0.795454545454545 0.802083333333333  C 1.32575757575758 0.267361111111109  1.96969696969697 0  2.72727272727273 0  L 8.18181818181818 0  C 8.93939393939394 0  9.58333333333334 0.267361111111109  10.1136363636364 0.802083333333333  Z M 24.6590909090909 0.802083333333333  C 25.1893939393939 1.33680555555555  25.4545454545455 1.98611111111111  25.4545454545455 2.75  L 25.4545454545455 8.25  C 25.4545454545455 9.01388888888889  25.1893939393939 9.66319444444444  24.6590909090909 10.1979166666667  C 24.1287878787879 10.7326388888889  23.4848484848485 11  22.7272727272727 11  L 17.2727272727273 11  C 16.5151515151515 11  15.8712121212121 10.7326388888889  15.3409090909091 10.1979166666667  C 14.8106060606061 9.66319444444444  14.5454545454545 9.01388888888889  14.5454545454545 8.25  L 14.5454545454545 2.75  C 14.5454545454545 1.98611111111111  14.8106060606061 1.33680555555555  15.3409090909091 0.802083333333333  C 15.8712121212121 0.267361111111109  16.5151515151515 0  17.2727272727273 0  L 22.7272727272727 0  C 23.4848484848485 0  24.1287878787879 0.267361111111109  24.6590909090909 0.802083333333333  Z M 39.2045454545455 0.802083333333333  C 39.7348484848485 1.33680555555555  40 1.98611111111111  40 2.75  L 40 8.25  C 40 9.01388888888889  39.7348484848485 9.66319444444444  39.2045454545455 10.1979166666667  C 38.6742424242424 10.7326388888889  38.030303030303 11  37.2727272727273 11  L 31.8181818181818 11  C 31.0606060606061 11  30.4166666666667 10.7326388888889  29.8863636363636 10.1979166666667  C 29.3560606060606 9.66319444444444  29.0909090909091 9.01388888888889  29.0909090909091 8.25  L 29.0909090909091 2.75  C 29.0909090909091 1.98611111111111  29.3560606060606 1.33680555555555  29.8863636363636 0.802083333333333  C 30.4166666666667 0.267361111111109  31.0606060606061 0  31.8181818181818 0  L 37.2727272727273 0  C 38.030303030303 0  38.6742424242424 0.267361111111109  39.2045454545455 0.802083333333333  Z " fill-rule="nonzero" fill="#ffffff" stroke="none" transform="matrix(1 0 0 1 443 43 )" />
  </g>
</svg>