<?xml version="1.0" encoding="utf-8"?>
<svg version="1.1" xmlns:xlink="http://www.w3.org/1999/xlink" width="12px" height="12px" viewBox="116 944  12 12" xmlns="http://www.w3.org/2000/svg">
  <path d="M 122 944  C 125.36 944  128 946.64  128 950  C 128 953.36  125.36 956  122 956  C 118.64 956  116 953.36  116 950  C 116 946.64  118.64 944  122 944  Z " fill-rule="nonzero" fill="#ffffff" stroke="none" />
  <path d="M 122 944.5  C 125.08 944.5  127.5 946.92  127.5 950  C 127.5 953.08  125.08 955.5  122 955.5  C 118.92 955.5  116.5 953.08  116.5 950  C 116.5 946.92  118.92 944.5  122 944.5  Z " stroke-width="1" stroke="#797979" fill="none" />
  <path d="M 122 953  C 120.32 953  119 951.68  119 950  C 119 948.32  120.32 947  122 947  C 123.68 947  125 948.32  125 950  C 125 951.68  123.68 953  122 953  " fill-rule="nonzero" fill="#797979" stroke="none" />
</svg>