<?xml version="1.0" encoding="utf-8"?>
<svg version="1.1" xmlns:xlink="http://www.w3.org/1999/xlink" width="45px" height="45px" xmlns="http://www.w3.org/2000/svg">
  <g transform="matrix(1 0 0 1 -501 -174 )">
    <path d="M 523.5 174  C 536.1 174  546 183.9  546 196.5  C 546 209.1  536.1 219  523.5 219  C 510.9 219  501 209.1  501 196.5  C 501 183.9  510.9 174  523.5 174  Z " fill-rule="nonzero" fill="#ffffff" stroke="none" />
    <path d="M 523.5 174.5  C 535.82 174.5  545.5 184.18  545.5 196.5  C 545.5 208.82  535.82 218.5  523.5 218.5  C 511.18 218.5  501.5 208.82  501.5 196.5  C 501.5 184.18  511.18 174.5  523.5 174.5  Z " stroke-width="1" stroke="#d9001b" fill="none" />
  </g>
</svg>