<?xml version="1.0" encoding="utf-8"?>
<svg version="1.1" xmlns:xlink="http://www.w3.org/1999/xlink" width="12px" height="12px" viewBox="72 185.5  12 12" xmlns="http://www.w3.org/2000/svg">
  <path d="M 78 185.5  C 81.36 185.5  84 188.14  84 191.5  C 84 194.86  81.36 197.5  78 197.5  C 74.64 197.5  72 194.86  72 191.5  C 72 188.14  74.64 185.5  78 185.5  Z " fill-rule="nonzero" fill="#ffffff" stroke="none" />
  <path d="M 78 186  C 81.08 186  83.5 188.42  83.5 191.5  C 83.5 194.58  81.08 197  78 197  C 74.92 197  72.5 194.58  72.5 191.5  C 72.5 188.42  74.92 186  78 186  Z " stroke-width="1" stroke="#797979" fill="none" />
  <path d="M 78 194.5  C 76.32 194.5  75 193.18  75 191.5  C 75 189.82  76.32 188.5  78 188.5  C 79.68 188.5  81 189.82  81 191.5  C 81 193.18  79.68 194.5  78 194.5  " fill-rule="nonzero" fill="#797979" stroke="none" />
</svg>