<?xml version="1.0" encoding="utf-8"?>
<svg version="1.1" xmlns:xlink="http://www.w3.org/1999/xlink" width="12px" height="12px" viewBox="72 147  12 12" xmlns="http://www.w3.org/2000/svg">
  <path d="M 78 147  C 81.36 147  84 149.64  84 153  C 84 156.36  81.36 159  78 159  C 74.64 159  72 156.36  72 153  C 72 149.64  74.64 147  78 147  Z " fill-rule="nonzero" fill="#ffffff" stroke="none" />
  <path d="M 78 147.5  C 81.08 147.5  83.5 149.92  83.5 153  C 83.5 156.08  81.08 158.5  78 158.5  C 74.92 158.5  72.5 156.08  72.5 153  C 72.5 149.92  74.92 147.5  78 147.5  Z " stroke-width="1" stroke="#797979" fill="none" />
  <path d="M 78 156  C 76.32 156  75 154.68  75 153  C 75 151.32  76.32 150  78 150  C 79.68 150  81 151.32  81 153  C 81 154.68  79.68 156  78 156  " fill-rule="nonzero" fill="#797979" stroke="none" />
</svg>