<?xml version="1.0" encoding="utf-8"?>
<svg version="1.1" xmlns:xlink="http://www.w3.org/1999/xlink" width="12px" height="12px" viewBox="72 222.5  12 12" xmlns="http://www.w3.org/2000/svg">
  <path d="M 78 222.5  C 81.36 222.5  84 225.14  84 228.5  C 84 231.86  81.36 234.5  78 234.5  C 74.64 234.5  72 231.86  72 228.5  C 72 225.14  74.64 222.5  78 222.5  Z " fill-rule="nonzero" fill="#ffffff" stroke="none" />
  <path d="M 78 223  C 81.08 223  83.5 225.42  83.5 228.5  C 83.5 231.58  81.08 234  78 234  C 74.92 234  72.5 231.58  72.5 228.5  C 72.5 225.42  74.92 223  78 223  Z " stroke-width="1" stroke="#797979" fill="none" />
  <path d="M 78 231.5  C 76.32 231.5  75 230.18  75 228.5  C 75 226.82  76.32 225.5  78 225.5  C 79.68 225.5  81 226.82  81 228.5  C 81 230.18  79.68 231.5  78 231.5  " fill-rule="nonzero" fill="#797979" stroke="none" />
</svg>