<?xml version="1.0" encoding="utf-8"?>
<svg version="1.1" xmlns:xlink="http://www.w3.org/1999/xlink" width="77px" height="93px" xmlns="http://www.w3.org/2000/svg">
  <g transform="matrix(1 0 0 1 -8 -11 )">
    <path d="M 8 11  L 85 11  L 85 104  L 8 104  L 8 11  " fill-rule="nonzero" fill="#cccccc" stroke="none" />
    <path d="M 13 16  L 80 16  L 80 99  L 13 99  L 13 16  " fill-rule="nonzero" fill="#ffffff" stroke="none" />
    <path d="M 53.815 36.5  C 50.581 36.5  48.04 33.959  48.04 30.725  C 48.04 27.491  50.581 24.95  53.815 24.95  C 57.049 24.95  59.59 27.491  59.59 30.725  C 59.59 33.959  57.049 36.5  53.815 36.5  " fill-rule="nonzero" fill="#cccccc" stroke="none" />
    <path d="M 15 97  L 15 53.55  L 30.75 33.8  L 52.8 49.6  L 65.4 45.65  L 78 49.6  L 78 97  L 15 97  " fill-rule="nonzero" fill="#169bd5" stroke="none" />
  </g>
</svg>