<?xml version="1.0" encoding="utf-8"?>
<svg version="1.1" xmlns:xlink="http://www.w3.org/1999/xlink" width="22px" height="22px" xmlns="http://www.w3.org/2000/svg">
  <g transform="matrix(1 0 0 1 -96 -39 )">
    <path d="M 1.39348771929825 11  C 1.39348771929825 16.3059368421053  5.69406315789474 20.6065122807018  11 20.6065122807018  C 16.3059368421053 20.6065122807018  20.6065122807018 16.3059368421053  20.6065122807018 11  C 20.6065122807018 5.69406315789474  16.3059368421053 1.39348771929825  11 1.39348771929825  C 5.69406315789474 1.39348771929825  1.39348771929825 5.69406315789474  1.39348771929825 11  Z M 21.9774596491228 11  C 21.9774596491228 17.0618105263158  17.0642807017544 21.9774596491228  11 21.9774596491228  C 4.93571929824562 21.9774596491228  0.0225403508771928 17.0618105263158  0.0225403508771928 11  C 0.0225403508771928 4.93818947368421  4.93571929824562 0.0225403508771928  11 0.0225403508771928  C 17.0642807017544 0.0225403508771928  21.9774596491228 4.93818947368421  21.9774596491228 11  Z " fill-rule="nonzero" fill="#323233" stroke="none" transform="matrix(1 0 0 1 96 39 )" />
  </g>
</svg>