<?xml version="1.0" encoding="utf-8"?>
<svg version="1.1" xmlns:xlink="http://www.w3.org/1999/xlink" width="20px" height="20px" xmlns="http://www.w3.org/2000/svg">
  <g transform="matrix(1 0 0 1 -228 -849 )">
    <path d="M 238 849  C 243.6 849  248 853.4  248 859  C 248 864.6  243.6 869  238 869  C 232.4 869  228 864.6  228 859  C 228 853.4  232.4 849  238 849  Z " fill-rule="nonzero" fill="#00bfbf" stroke="none" />
    <path d="M 238 849.5  C 243.32 849.5  247.5 853.68  247.5 859  C 247.5 864.32  243.32 868.5  238 868.5  C 232.68 868.5  228.5 864.32  228.5 859  C 228.5 853.68  232.68 849.5  238 849.5  Z " stroke-width="1" stroke="#00bfbf" fill="none" />
  </g>
</svg>