<?xml version="1.0" encoding="utf-8"?>
<svg version="1.1" xmlns:xlink="http://www.w3.org/1999/xlink" width="20px" height="20px" xmlns="http://www.w3.org/2000/svg">
  <g transform="matrix(1 0 0 1 -262 -849 )">
    <path d="M 272 849  C 277.6 849  282 853.4  282 859  C 282 864.6  277.6 869  272 869  C 266.4 869  262 864.6  262 859  C 262 853.4  266.4 849  272 849  Z " fill-rule="nonzero" fill="#ffffff" stroke="none" />
    <path d="M 272 849.5  C 277.32 849.5  281.5 853.68  281.5 859  C 281.5 864.32  277.32 868.5  272 868.5  C 266.68 868.5  262.5 864.32  262.5 859  C 262.5 853.68  266.68 849.5  272 849.5  Z " stroke-width="1" stroke="#d7d7d7" fill="none" />
  </g>
</svg>