<?xml version="1.0" encoding="utf-8"?>
<svg version="1.1" xmlns:xlink="http://www.w3.org/1999/xlink" width="10px" height="19px" xmlns="http://www.w3.org/2000/svg">
  <g transform="matrix(1 0 0 1 -353 -180 )">
    <path d="M 9.86081370449679 11.5675223214286  C 9.9536045681656 11.8785342261905  10 12.2107514880952  10 12.5641741071429  C 10 13.6456473214286  9.64489650249822 14.576915922619  8.93468950749465 15.3579799107143  C 8.22448251249108 16.1390438988095  7.30192719486081 16.6214657738095  6.16702355460385 16.8052455357143  L 6.16702355460385 18.6607142857143  C 6.16702355460385 18.7596726190476  6.13490364025696 18.8409598214286  6.07066381156317 18.9045758928571  C 6.00642398286938 18.9681919642857  5.9243397573162 19  5.82441113490364 19  L 4.37901498929336 19  C 4.28622412562455 19  4.20592433975732 18.9664248511905  4.13811563169165 18.8992745535714  C 4.07030692362598 18.8321242559524  4.03640256959315 18.7526041666667  4.03640256959315 18.6607142857143  L 4.03640256959315 16.8052455357143  C 3.56531049250535 16.7416294642857  3.11027837259101 16.632068452381  2.67130620985011 16.4765625  C 2.23233404710921 16.321056547619  1.87009279086367 16.1637834821429  1.58458244111349 16.0047433035714  C 1.29907209136331 15.845703125  1.0349750178444 15.6760602678571  0.792291220556745 15.4958147321429  C 0.549607423269094 15.3155691964286  0.383654532476802 15.1830357142857  0.294432548179872 15.0982142857143  C 0.205210563882941 15.0133928571429  0.142755174875089 14.9497767857143  0.107066381156317 14.9073660714286  C -0.0142755174875089 14.7589285714286  -0.0214132762312634 14.614025297619  0.0856531049250535 14.47265625  L 1.18843683083512 13.0412946428571  C 1.2384011420414 12.9706101190476  1.32048536759458 12.9281994047619  1.43468950749465 12.9140625  C 1.54175588865096 12.8999255952381  1.62740899357602 12.9317336309524  1.69164882226981 13.0094866071429  L 1.71306209850107 13.0306919642857  C 2.51962883654532 13.73046875  3.38686652391149 14.1722470238095  4.31477516059957 14.3560267857143  C 4.57887223411849 14.4125744047619  4.8429693076374 14.4408482142857  5.10706638115632 14.4408482142857  C 5.68522483940043 14.4408482142857  6.19379014989293 14.2888764880952  6.63276231263383 13.9849330357143  C 7.07173447537473 13.6809895833333  7.29122055674518 13.2498139880952  7.29122055674518 12.69140625  C 7.29122055674518 12.4934895833333  7.23768736616702 12.3061755952381  7.13062098501071 12.1294642857143  C 7.02355460385439 11.9527529761905  6.9039971448965 11.8043154761905  6.77194860813704 11.6841517857143  C 6.63990007137759 11.5639880952381  6.43112062812277 11.4314546130952  6.14561027837259 11.2865513392857  C 5.86009992862241 11.1416480654762  5.62455389007852 11.028552827381  5.4389721627409 10.947265625  C 5.25339043540328 10.865978422619  4.96788008565311 10.7511160714286  4.58244111349036 10.6026785714286  C 4.30406852248394 10.4895833333333  4.08458244111349 10.4012276785714  3.92398286937902 10.3376116071429  C 3.76338329764454 10.2739955357143  3.54389721627409 10.1803385416667  3.26552462526767 10.056640625  C 2.98715203426124 9.93294270833333  2.76409707351891 9.82338169642857  2.59635974304069 9.72795758928571  C 2.42862241256246 9.63253348214286  2.22698072805139 9.50706845238095  1.99143468950749 9.3515625  C 1.7558886509636 9.19605654761905  1.56495360456817 9.04585193452381  1.4186295503212 8.90094866071428  C 1.27230549607423 8.75604538690476  1.11705924339757 8.58286830357143  0.952890792291221 8.38141741071428  C 0.788722341184868 8.17996651785714  0.662027123483226 7.97498139880952  0.572805139186295 7.76646205357143  C 0.483583154889365 7.55794270833333  0.408636688079943 7.32291666666667  0.34796573875803 7.06138392857143  C 0.287294789436117 6.79985119047619  0.256959314775161 6.52418154761905  0.256959314775161 6.234375  C 0.256959314775161 5.25892857142857  0.606709493219129 4.40364583333333  1.30620985010707 3.66852678571428  C 2.005710206995 2.93340773809524  2.9157744468237 2.45982142857143  4.03640256959315 2.24776785714286  L 4.03640256959315 0.339285714285715  C 4.03640256959315 0.247395833333332  4.07030692362598 0.167875744047619  4.13811563169165 0.100725446428572  C 4.20592433975732 0.0335751488095246  4.28622412562455 0  4.37901498929336 0  L 5.82441113490364 0  C 5.9243397573162 0  6.00642398286938 0.0318080357142848  6.07066381156317 0.0954241071428565  C 6.13490364025696 0.159040178571428  6.16702355460385 0.240327380952379  6.16702355460385 0.339285714285715  L 6.16702355460385 2.20535714285714  C 6.57387580299786 2.24776785714286  6.96823697359029 2.32905505952381  7.35010706638116 2.44921875  C 7.73197715917202 2.56938244047619  8.04246966452534 2.68777901785714  8.28158458244111 2.80440848214286  C 8.52069950035689 2.92103794642857  8.74732334047109 3.05357142857143  8.96145610278373 3.20200892857143  C 9.17558886509636 3.35044642857143  9.31477516059957 3.45293898809524  9.37901498929336 3.50948660714286  C 9.44325481798715 3.56603422619048  9.49678800856531 3.61551339285714  9.53961456102784 3.65792410714286  C 9.66095645967166 3.78515625  9.67880085653105 3.91945684523809  9.593147751606 4.06082589285714  L 8.72591006423983 5.60881696428572  C 8.66880799428979 5.71484375  8.58672376873662 5.77139136904762  8.4796573875803 5.77845982142857  C 8.37972876516774 5.79966517857143  8.28336902212705 5.77492559523809  8.19057815845824 5.70424107142857  C 8.16916488222698 5.68303571428572  8.11741613133476 5.640625  8.03533190578158 5.57700892857143  C 7.95324768022841 5.51339285714286  7.8140613847252 5.41973586309524  7.61777301927195 5.29603794642857  C 7.4214846538187 5.1723400297619  7.21270521056388 5.05924479166667  6.99143468950749 4.95675223214286  C 6.77016416845111 4.85425967261905  6.50428265524625 4.76236979166667  6.19379014989293 4.68108258928572  C 5.88329764453961 4.59979538690476  5.57815845824411 4.55915178571428  5.27837259100642 4.55915178571428  C 4.60028551034975 4.55915178571428  4.04710920770878 4.71112351190476  3.61884368308351 5.01506696428572  C 3.19057815845824 5.31901041666667  2.97644539614561 5.71130952380952  2.97644539614561 6.19196428571428  C 2.97644539614561 6.37574404761905  3.00678087080657 6.5453869047619  3.06745182012848 6.70089285714286  C 3.12812276945039 6.85639880952381  3.23340471092077 7.00306919642857  3.38329764453961 7.14090401785714  C 3.53319057815846 7.27873883928572  3.67416131334761 7.39536830357143  3.80620985010707 7.49079241071428  C 3.93825838686652 7.58621651785714  4.13811563169165 7.6957775297619  4.40578158458244 7.81947544642857  C 4.67344753747323 7.94317336309524  4.88936473947181 8.03859747023809  5.05353319057816 8.10574776785714  C 5.21770164168451 8.17289806547619  5.46752319771592 8.27008928571428  5.80299785867238 8.39732142857143  C 6.18129907209136 8.53869047619047  6.47037830121342 8.65001860119047  6.67023554603854 8.73130580357143  C 6.87009279086367 8.81259300595238  7.14132762312634 8.93629092261905  7.48394004282655 9.10239955357143  C 7.82655246252677 9.26850818452381  8.0960028551035 9.41871279761905  8.29229122055674 9.55301339285714  C 8.48857958600999 9.68731398809524  8.70985010706638 9.86402529761905  8.95610278372591 10.0831473214286  C 9.20235546038544 10.3022693452381  9.39150606709493 10.5266927083333  9.52355460385439 10.7564174107143  C 9.65560314061385 10.9861421130952  9.76802284082798 11.2565104166667  9.86081370449679 11.5675223214286  Z " fill-rule="nonzero" fill="#f4e012" stroke="none" transform="matrix(1 0 0 1 353 180 )" />
  </g>
</svg>