<?xml version="1.0" encoding="utf-8"?>
<svg version="1.1" xmlns:xlink="http://www.w3.org/1999/xlink" width="60px" height="60px" xmlns="http://www.w3.org/2000/svg">
  <g transform="matrix(1 0 0 1 -27 -16 )">
    <path d="M 57 16  C 73.8 16  87 29.2  87 46  C 87 62.8  73.8 76  57 76  C 40.2 76  27 62.8  27 46  C 27 29.2  40.2 16  57 16  Z " fill-rule="nonzero" fill="#ffffff" stroke="none" />
    <path d="M 57 16.5  C 73.52 16.5  86.5 29.48  86.5 46  C 86.5 62.52  73.52 75.5  57 75.5  C 40.48 75.5  27.5 62.52  27.5 46  C 27.5 29.48  40.48 16.5  57 16.5  Z " stroke-width="1" stroke="#797979" fill="none" />
  </g>
</svg>