<?xml version="1.0" encoding="utf-8"?>
<svg version="1.1" xmlns:xlink="http://www.w3.org/1999/xlink" width="12px" height="12px" viewBox="437 119.5  12 12" xmlns="http://www.w3.org/2000/svg">
  <path d="M 443 119.5  C 446.36 119.5  449 122.14  449 125.5  C 449 128.86  446.36 131.5  443 131.5  C 439.64 131.5  437 128.86  437 125.5  C 437 122.14  439.64 119.5  443 119.5  Z " fill-rule="nonzero" fill="#ffffff" stroke="none" />
  <path d="M 443 120  C 446.08 120  448.5 122.42  448.5 125.5  C 448.5 128.58  446.08 131  443 131  C 439.92 131  437.5 128.58  437.5 125.5  C 437.5 122.42  439.92 120  443 120  Z " stroke-width="1" stroke="#797979" fill="none" />
  <path d="M 443 128.5  C 441.32 128.5  440 127.18  440 125.5  C 440 123.82  441.32 122.5  443 122.5  C 444.68 122.5  446 123.82  446 125.5  C 446 127.18  444.68 128.5  443 128.5  " fill-rule="nonzero" fill="#797979" stroke="none" />
</svg>