<?xml version="1.0" encoding="utf-8"?>
<svg version="1.1" xmlns:xlink="http://www.w3.org/1999/xlink" width="12px" height="12px" viewBox="235 119.5  12 12" xmlns="http://www.w3.org/2000/svg">
  <path d="M 241 119.5  C 244.36 119.5  247 122.14  247 125.5  C 247 128.86  244.36 131.5  241 131.5  C 237.64 131.5  235 128.86  235 125.5  C 235 122.14  237.64 119.5  241 119.5  Z " fill-rule="nonzero" fill="#ffffff" stroke="none" />
  <path d="M 241 120  C 244.08 120  246.5 122.42  246.5 125.5  C 246.5 128.58  244.08 131  241 131  C 237.92 131  235.5 128.58  235.5 125.5  C 235.5 122.42  237.92 120  241 120  Z " stroke-width="1" stroke="#797979" fill="none" />
  <path d="M 241 128.5  C 239.32 128.5  238 127.18  238 125.5  C 238 123.82  239.32 122.5  241 122.5  C 242.68 122.5  244 123.82  244 125.5  C 244 127.18  242.68 128.5  241 128.5  " fill-rule="nonzero" fill="#797979" stroke="none" />
</svg>