<?xml version="1.0" encoding="utf-8"?>
<svg version="1.1" xmlns:xlink="http://www.w3.org/1999/xlink" width="12px" height="12px" viewBox="205 237.5  12 12" xmlns="http://www.w3.org/2000/svg">
  <path d="M 211 237.5  C 214.36 237.5  217 240.14  217 243.5  C 217 246.86  214.36 249.5  211 249.5  C 207.64 249.5  205 246.86  205 243.5  C 205 240.14  207.64 237.5  211 237.5  Z " fill-rule="nonzero" fill="#ffffff" stroke="none" />
  <path d="M 211 238  C 214.08 238  216.5 240.42  216.5 243.5  C 216.5 246.58  214.08 249  211 249  C 207.92 249  205.5 246.58  205.5 243.5  C 205.5 240.42  207.92 238  211 238  Z " stroke-width="1" stroke="#797979" fill="none" />
  <path d="M 211 246.5  C 209.32 246.5  208 245.18  208 243.5  C 208 241.82  209.32 240.5  211 240.5  C 212.68 240.5  214 241.82  214 243.5  C 214 245.18  212.68 246.5  211 246.5  " fill-rule="nonzero" fill="#797979" stroke="none" />
</svg>