<?xml version="1.0" encoding="utf-8"?>
<svg version="1.1" xmlns:xlink="http://www.w3.org/1999/xlink" width="12px" height="12px" viewBox="528 236.5  12 12" xmlns="http://www.w3.org/2000/svg">
  <path d="M 534 236.5  C 537.36 236.5  540 239.14  540 242.5  C 540 245.86  537.36 248.5  534 248.5  C 530.64 248.5  528 245.86  528 242.5  C 528 239.14  530.64 236.5  534 236.5  Z " fill-rule="nonzero" fill="#ffffff" stroke="none" />
  <path d="M 534 237  C 537.08 237  539.5 239.42  539.5 242.5  C 539.5 245.58  537.08 248  534 248  C 530.92 248  528.5 245.58  528.5 242.5  C 528.5 239.42  530.92 237  534 237  Z " stroke-width="1" stroke="#797979" fill="none" />
  <path d="M 534 245.5  C 532.32 245.5  531 244.18  531 242.5  C 531 240.82  532.32 239.5  534 239.5  C 535.68 239.5  537 240.82  537 242.5  C 537 244.18  535.68 245.5  534 245.5  " fill-rule="nonzero" fill="#797979" stroke="none" />
</svg>