<?xml version="1.0" encoding="utf-8"?>
<svg version="1.1" xmlns:xlink="http://www.w3.org/1999/xlink" width="12px" height="12px" viewBox="598 236.5  12 12" xmlns="http://www.w3.org/2000/svg">
  <path d="M 604 236.5  C 607.36 236.5  610 239.14  610 242.5  C 610 245.86  607.36 248.5  604 248.5  C 600.64 248.5  598 245.86  598 242.5  C 598 239.14  600.64 236.5  604 236.5  Z " fill-rule="nonzero" fill="#ffffff" stroke="none" />
  <path d="M 604 237  C 607.08 237  609.5 239.42  609.5 242.5  C 609.5 245.58  607.08 248  604 248  C 600.92 248  598.5 245.58  598.5 242.5  C 598.5 239.42  600.92 237  604 237  Z " stroke-width="1" stroke="#797979" fill="none" />
  <path d="M 604 245.5  C 602.32 245.5  601 244.18  601 242.5  C 601 240.82  602.32 239.5  604 239.5  C 605.68 239.5  607 240.82  607 242.5  C 607 244.18  605.68 245.5  604 245.5  " fill-rule="nonzero" fill="#797979" stroke="none" />
</svg>