<?xml version="1.0" encoding="utf-8"?>
<svg version="1.1" xmlns:xlink="http://www.w3.org/1999/xlink" width="12px" height="12px" viewBox="135 119.5  12 12" xmlns="http://www.w3.org/2000/svg">
  <path d="M 141 119.5  C 144.36 119.5  147 122.14  147 125.5  C 147 128.86  144.36 131.5  141 131.5  C 137.64 131.5  135 128.86  135 125.5  C 135 122.14  137.64 119.5  141 119.5  Z " fill-rule="nonzero" fill="#ffffff" stroke="none" />
  <path d="M 141 120  C 144.08 120  146.5 122.42  146.5 125.5  C 146.5 128.58  144.08 131  141 131  C 137.92 131  135.5 128.58  135.5 125.5  C 135.5 122.42  137.92 120  141 120  Z " stroke-width="1" stroke="#797979" fill="none" />
  <path d="M 141 128.5  C 139.32 128.5  138 127.18  138 125.5  C 138 123.82  139.32 122.5  141 122.5  C 142.68 122.5  144 123.82  144 125.5  C 144 127.18  142.68 128.5  141 128.5  " fill-rule="nonzero" fill="#797979" stroke="none" />
</svg>