<?xml version="1.0" encoding="utf-8"?>
<svg version="1.1" xmlns:xlink="http://www.w3.org/1999/xlink" width="12px" height="12px" viewBox="468 290.5  12 12" xmlns="http://www.w3.org/2000/svg">
  <path d="M 474 290.5  C 477.36 290.5  480 293.14  480 296.5  C 480 299.86  477.36 302.5  474 302.5  C 470.64 302.5  468 299.86  468 296.5  C 468 293.14  470.64 290.5  474 290.5  Z " fill-rule="nonzero" fill="#ffffff" stroke="none" />
  <path d="M 474 291  C 477.08 291  479.5 293.42  479.5 296.5  C 479.5 299.58  477.08 302  474 302  C 470.92 302  468.5 299.58  468.5 296.5  C 468.5 293.42  470.92 291  474 291  Z " stroke-width="1" stroke="#797979" fill="none" />
  <path d="M 474 299.5  C 472.32 299.5  471 298.18  471 296.5  C 471 294.82  472.32 293.5  474 293.5  C 475.68 293.5  477 294.82  477 296.5  C 477 298.18  475.68 299.5  474 299.5  " fill-rule="nonzero" fill="#797979" stroke="none" />
</svg>