<?xml version="1.0" encoding="utf-8"?>
<svg version="1.1" xmlns:xlink="http://www.w3.org/1999/xlink" width="12px" height="12px" viewBox="297 290.5  12 12" xmlns="http://www.w3.org/2000/svg">
  <path d="M 303 290.5  C 306.36 290.5  309 293.14  309 296.5  C 309 299.86  306.36 302.5  303 302.5  C 299.64 302.5  297 299.86  297 296.5  C 297 293.14  299.64 290.5  303 290.5  Z " fill-rule="nonzero" fill="#ffffff" stroke="none" />
  <path d="M 303 291  C 306.08 291  308.5 293.42  308.5 296.5  C 308.5 299.58  306.08 302  303 302  C 299.92 302  297.5 299.58  297.5 296.5  C 297.5 293.42  299.92 291  303 291  Z " stroke-width="1" stroke="#797979" fill="none" />
  <path d="M 303 299.5  C 301.32 299.5  300 298.18  300 296.5  C 300 294.82  301.32 293.5  303 293.5  C 304.68 293.5  306 294.82  306 296.5  C 306 298.18  304.68 299.5  303 299.5  " fill-rule="nonzero" fill="#797979" stroke="none" />
</svg>