<?xml version="1.0" encoding="utf-8"?>
<svg version="1.1" xmlns:xlink="http://www.w3.org/1999/xlink" width="12px" height="12px" viewBox="241 119.5  12 12" xmlns="http://www.w3.org/2000/svg">
  <path d="M 247 119.5  C 250.36 119.5  253 122.14  253 125.5  C 253 128.86  250.36 131.5  247 131.5  C 243.64 131.5  241 128.86  241 125.5  C 241 122.14  243.64 119.5  247 119.5  Z " fill-rule="nonzero" fill="#ffffff" stroke="none" />
  <path d="M 247 120  C 250.08 120  252.5 122.42  252.5 125.5  C 252.5 128.58  250.08 131  247 131  C 243.92 131  241.5 128.58  241.5 125.5  C 241.5 122.42  243.92 120  247 120  Z " stroke-width="1" stroke="#797979" fill="none" />
  <path d="M 247 128.5  C 245.32 128.5  244 127.18  244 125.5  C 244 123.82  245.32 122.5  247 122.5  C 248.68 122.5  250 123.82  250 125.5  C 250 127.18  248.68 128.5  247 128.5  " fill-rule="nonzero" fill="#797979" stroke="none" />
</svg>