<?xml version="1.0" encoding="utf-8"?>
<svg version="1.1" xmlns:xlink="http://www.w3.org/1999/xlink" width="12px" height="12px" viewBox="387 290.5  12 12" xmlns="http://www.w3.org/2000/svg">
  <path d="M 393 290.5  C 396.36 290.5  399 293.14  399 296.5  C 399 299.86  396.36 302.5  393 302.5  C 389.64 302.5  387 299.86  387 296.5  C 387 293.14  389.64 290.5  393 290.5  Z " fill-rule="nonzero" fill="#ffffff" stroke="none" />
  <path d="M 393 291  C 396.08 291  398.5 293.42  398.5 296.5  C 398.5 299.58  396.08 302  393 302  C 389.92 302  387.5 299.58  387.5 296.5  C 387.5 293.42  389.92 291  393 291  Z " stroke-width="1" stroke="#797979" fill="none" />
  <path d="M 393 299.5  C 391.32 299.5  390 298.18  390 296.5  C 390 294.82  391.32 293.5  393 293.5  C 394.68 293.5  396 294.82  396 296.5  C 396 298.18  394.68 299.5  393 299.5  " fill-rule="nonzero" fill="#797979" stroke="none" />
</svg>