<?xml version="1.0" encoding="utf-8"?>
<svg version="1.1" xmlns:xlink="http://www.w3.org/1999/xlink" width="150px" height="150px" xmlns="http://www.w3.org/2000/svg">
  <g transform="matrix(1 0 0 1 -194 -183 )">
    <path d="M 10.68 75  C 10.68 110.52  39.48 139.32  75 139.32  C 110.52 139.32  139.32 110.52  139.32 75  C 139.32 39.48  110.52 10.68  75 10.68  C 39.48 10.68  10.68 39.48  10.68 75  Z M 149.846315789474 75  C 149.846315789474 116.330526315789  116.347368421053 149.846315789474  75 149.846315789474  C 33.6526315789474 149.846315789474  0.153684210526315 116.330526315789  0.153684210526315 75  C 0.153684210526315 33.6694736842105  33.6526315789474 0.153684210526315  75 0.153684210526315  C 116.347368421053 0.153684210526315  149.846315789474 33.6694736842105  149.846315789474 75  Z " fill-rule="nonzero" fill="#323233" stroke="none" transform="matrix(1 0 0 1 194 183 )" />
  </g>
</svg>